<?xml version="1.0" encoding="utf-8"?>
<!-- Generator: Adobe Illustrator 21.1.0, SVG Export Plug-In . SVG Version: 6.00 Build 0)  -->
<svg version="1.1" id="Layer_1" xmlns="http://www.w3.org/2000/svg" xmlns:xlink="http://www.w3.org/1999/xlink" x="0px" y="0px"
	 viewBox="0 0 1133.9 1133.9" enable-background="new 0 0 1133.9 1133.9" xml:space="preserve">
<path fill="#FFFFFF" d="M581.7,619.8c0,3.8,0,7.7,0,11.5c-45.1,0-90.3,0-135.4,0c0-3.8,0-7.7,0-11.5c5.4,0,10.8-0.2,16.2,0
	c2.3,0.1,4-0.6,5.6-2.2c9.3-9.3,18.7-18.6,28.1-27.8c10.6-10.5,24.9-10.5,35.5,0c9.4,9.3,18.8,18.5,28.1,27.8
	c1.7,1.7,3.3,2.3,5.6,2.2C570.9,619.6,576.3,619.8,581.7,619.8z"/>
<path d="M581.7,619.8c-5.4,0-10.8-0.2-16.2,0c-2.3,0.1-4-0.6-5.6-2.2c-9.3-9.3-18.7-18.6-28.1-27.8c-10.6-10.5-24.9-10.5-35.5,0
	c-9.4,9.3-18.8,18.5-28.1,27.8c-1.7,1.7-3.3,2.3-5.6,2.2c-5.4-0.1-10.8,0-16.2,0c0-0.2,0-0.5,0-0.7c4.7-4.5,9.5-8.9,14.1-13.5
	c8.9-8.7,17.6-17.4,26.5-26.2c15.4-15.2,38.9-15.2,54.3,0c12.7,12.5,25.3,25.1,38,37.6c0.8,0.8,1.7,1.4,2.6,2
	C581.7,619.4,581.7,619.6,581.7,619.8z"/>
<path d="M446.8,507.5c6.5,0,12.2-0.1,18,0.1c1.1,0,2.4,1,3.3,1.9c9.5,9.3,18.9,18.7,28.4,28c10.3,10.2,24.7,10.1,35,0
	c9.5-9.4,18.9-18.8,28.5-28c1.1-1.1,3.1-1.8,4.7-1.9c5.3-0.2,10.5-0.1,16.5-0.1c-1.1,1.3-1.8,2.1-2.5,2.8
	c-12.7,12.5-25.3,25.1-38,37.6c-14.6,14.3-37.9,14.7-52.6,0.6c-13.4-12.9-26.5-26.1-39.7-39.2C447.9,509,447.6,508.5,446.8,507.5z"
	/>
</svg>
