<svg height="511pt" viewBox="-3 0 511 511.9992" width="511pt" xmlns="http://www.w3.org/2000/svg"><path d="m251.480469 128.3125c-.820313 0-1.65625-.132812-2.472657-.414062-3.980468-1.363282-6.101562-5.699219-4.738281-9.679688l10.859375-31.667969c1.28125-4.21875 19.660156-62.769531 59.609375-81.089843 16.566407-7.597657 34.324219-7.265626 52.769531.996093 24.582032 11.003907 36.394532 30.984375 31.597657 53.441407-3.917969 18.34375-18.453125 35.273437-40.925781 47.664062-24.609376 13.574219-57.152344 20.75-94.113282 20.75-2.613281 0-4.917968-1.316406-6.292968-3.320312-1.417969 2.078124-3.792969 3.320312-6.292969 3.320312zm87.855469-113.082031c-6.25 0-12.296876 1.359375-18.214844 4.066406-34.285156 15.695313-51.265625 71.210937-51.433594 71.769531-.03125.097656-.0625.195313-.09375.289063l-7.539062 21.980469c.640624-.171876 1.316406-.265626 2.011718-.265626 53.714844 0 112.226563-19.359374 120.132813-56.359374 3.230469-15.128907-5.121094-28.375-22.917969-36.34375-7.644531-3.421876-14.925781-5.136719-21.945312-5.136719zm0 0" fill="#fcdf6c"/><path d="m203.359375 128.3125c-2.207031 0-4.300781-.964844-5.738281-2.605469-1.398438 1.597657-3.449219 2.605469-5.738282 2.605469-36.957031 0-69.5-7.175781-94.113281-20.75-22.472656-12.394531-37.003906-29.320312-40.925781-47.664062-4.796875-22.460938 7.015625-42.4375 31.597656-53.441407 18.449219-8.261719 36.207032-8.597656 52.773438-1 40.566406 18.605469 58.894531 78.699219 59.652344 81.25l9.777343 31.742188c1.238281 4.019531-1.015625 8.285156-5.039062 9.523437-.746094.230469-1.503907.339844-2.246094.339844zm-86.746094-113.082031c-7.019531 0-14.296875 1.710937-21.945312 5.136719-17.796875 7.96875-26.148438 21.214843-22.917969 36.34375 7.90625 37 66.417969 56.359374 120.136719 56.359374.402343 0 .796875.03125 1.183593.089844l-6.789062-22.03125c-.183594-.621094-17.167969-56.136718-51.449219-71.832031-5.921875-2.707031-11.96875-4.066406-18.21875-4.066406zm0 0" fill="#fcdf6c"/><path d="m406.597656 472.851562h-357.242187c-11.40625 0-20.652344-9.246093-20.652344-20.652343v-300.714844h398.546875v300.714844c0 11.40625-9.246094 20.652343-20.652344 20.652343zm0 0" fill="#fc477e"/><path d="m374.042969 151.484375v300.714844c0 11.40625-9.246094 20.652343-20.652344 20.652343h53.207031c11.40625 0 20.652344-9.246093 20.652344-20.652343v-300.714844zm0 0" fill="#d82665"/><path d="m444.851562 171.09375h-433.75c-5.855468 0-10.601562-4.746094-10.601562-10.601562v-29.203126c0-5.855468 4.746094-10.601562 10.601562-10.601562h433.75c5.855469 0 10.601563 4.746094 10.601563 10.601562v29.203126c0 5.855468-4.746094 10.601562-10.601563 10.601562zm0 0" fill="#d82665"/><path d="m227.976562 60.269531c-19.890624 0-36.011718 16.125-36.011718 36.011719v203.910156c0 4.605469 5.460937 7.03125 8.878906 3.9375l23.566406-21.335937c2.023438-1.832031 5.109375-1.832031 7.132813 0l23.566406 21.335937c3.414063 3.09375 8.878906.667969 8.878906-3.9375v-203.910156c0-19.886719-16.125-36.011719-36.011719-36.011719zm0 0" fill="#fcdf6c"/><path d="m263.988281 120.6875v-24.40625c0-19.886719-16.125-36.011719-36.011719-36.011719-19.890624 0-36.011718 16.125-36.011718 36.011719v24.410156h72.023437zm0 0" fill="#ffa63b"/><path d="m444.304688 511.171875-30.089844-15.964844c-2.054688-1.089843-4.515625-1.089843-6.574219 0l-30.089844 15.964844c-4.671875 2.476563-10.300781-.910156-10.300781-6.199219v-124.433594h87.359375v124.433594c0 5.289063-5.628906 8.675782-10.304687 6.199219zm0 0" fill="#fcdf6c"/><path d="m423.917969 281.828125c4.417969 6.292969 12.707031 8.511719 19.675781 5.273437 9.976562-4.636718 21.523438 2.03125 22.496094 12.988282.683594 7.65625 6.75 13.722656 14.40625 14.40625 10.957031.96875 17.625 12.519531 12.988281 22.496094-3.238281 6.96875-1.019531 15.257812 5.273437 19.675781 9 6.320312 9 19.65625 0 25.976562-6.292968 4.417969-8.511718 12.707031-5.273437 19.679688 4.636719 9.972656-2.03125 21.523437-12.988281 22.496093-7.65625.679688-13.722656 6.746094-14.40625 14.402344-.96875 10.957032-12.519532 17.625-22.496094 12.988282-6.96875-3.238282-15.257812-1.015626-19.675781 5.273437-6.320313 9-19.65625 9-25.976563 0-4.417968-6.289063-12.707031-8.511719-19.679687-5.273437-9.972657 4.636718-21.523438-2.03125-22.496094-12.988282-.679687-7.652344-6.746094-13.722656-14.402344-14.402344-10.957031-.972656-17.625-12.523437-12.988281-22.496093 3.238281-6.972657 1.015625-15.261719-5.273438-19.679688-9-6.320312-9-19.65625 0-25.976562 6.292969-4.417969 8.511719-12.707031 5.273438-19.675781-4.636719-9.976563 2.03125-21.523438 12.988281-22.496094 7.65625-.683594 13.722657-6.75 14.402344-14.40625.972656-10.957032 12.523437-17.625 22.496094-12.988282 6.972656 3.238282 15.261719 1.019532 19.679687-5.273437 6.320313-9 19.65625-9 25.976563 0zm0 0" fill="#ff8533"/><path d="m465.414062 369.65625c0 30.089844-24.394531 54.484375-54.484374 54.484375-30.089844 0-54.484376-24.394531-54.484376-54.484375s24.394532-54.480469 54.484376-54.480469c30.089843 0 54.484374 24.390625 54.484374 54.480469zm0 0" fill="#fcdf6c"/><path d="m410.929688 315.171875c-9.765626 0-18.925782 2.585937-26.851563 7.085937 16.492187 9.363282 27.628906 27.074219 27.628906 47.398438s-11.136719 38.035156-27.628906 47.398438c7.925781 4.503906 17.085937 7.085937 26.851563 7.085937 30.089843 0 54.484374-24.394531 54.484374-54.484375s-24.394531-54.484375-54.484374-54.484375zm0 0" fill="#f4b425"/></svg>