<svg height="511.999pt" viewBox="0 0 511.999 511.999" width="511.999pt" xmlns="http://www.w3.org/2000/svg"><path d="m291.15625 18.273438c11.953125 17.027343 34.394531 23.039062 53.261719 14.269531 26.996093-12.546875 58.257812 5.503906 60.890625 35.15625 1.839844 20.726562 18.265625 37.152343 38.992187 38.992187 29.652344 2.628906 47.703125 33.894532 35.152344 60.890625-8.765625 18.867188-2.753906 41.304688 14.273437 53.261719 24.363282 17.105469 24.363282 53.207031 0 70.3125-17.027343 11.953125-23.039062 34.394531-14.273437 53.261719 12.550781 26.996093-5.503906 58.257812-35.152344 60.890625-20.726562 1.839844-37.152343 18.265625-38.992187 38.992187-2.632813 29.652344-33.894532 47.703125-60.890625 35.152344-18.867188-8.765625-41.308594-2.753906-53.261719 14.273437-17.105469 24.363282-53.207031 24.363282-70.3125 0-11.957031-17.027343-34.394531-23.039062-53.261719-14.273437-26.996093 12.550781-58.261719-5.503906-60.890625-35.152344-1.839844-20.726562-18.265625-37.152343-38.992187-38.992187-29.652344-2.632813-47.703125-33.894532-35.15625-60.890625 8.769531-18.867188 2.757812-41.308594-14.269531-53.261719-24.363282-17.105469-24.363282-53.207031 0-70.3125 17.027343-11.957031 23.039062-34.394531 14.269531-53.261719-12.546875-26.996093 5.503906-58.261719 35.15625-60.890625 20.726562-1.839844 37.152343-18.265625 38.992187-38.992187 2.628906-29.652344 33.894532-47.703125 60.890625-35.15625 18.867188 8.769531 41.304688 2.757812 53.261719-14.269531 17.105469-24.363282 53.207031-24.363282 70.3125 0zm0 0" fill="#ff8533"/><path d="m452.523438 256c0 108.539062-87.984376 196.523438-196.523438 196.523438s-196.523438-87.984376-196.523438-196.523438 87.984376-196.523438 196.523438-196.523438 196.523438 87.984376 196.523438 196.523438zm0 0" fill="#e4eaf7"/><path d="m256 59.476562c-9.285156 0-18.414062.660157-27.355469 1.90625 95.582031 13.3125 169.164063 95.363282 169.164063 194.617188s-73.578125 181.304688-169.164063 194.617188c8.941407 1.246093 18.070313 1.90625 27.355469 1.90625 108.535156 0 196.523438-87.988282 196.523438-196.523438s-87.988282-196.523438-196.523438-196.523438zm0 0" fill="#c3c8d0"/><path d="m267.460938 204.527344c-.855469 0-1.726563-.140625-2.578126-.445313-4.023437-1.425781-6.128906-5.839843-4.703124-9.863281l5.519531-15.585938c.9375-3.042968 10.589843-32.84375 31.617187-42.488281 9.285156-4.257812 19.171875-4.09375 29.394532.480469 13.789062 6.175781 20.648437 18.011719 17.894531 30.894531-3.933594 18.421875-27.332031 37.003907-70.734375 37.003907-1.144532 0-2.230469-.246094-3.207032-.695313-.996093.457031-2.089843.699219-3.203124.699219zm43.6875-55.976563c-2.550782 0-5.003907.546875-7.390626 1.640625-12.78125 5.863282-21.164062 25.859375-23.3125 33.066406-.039062.125-.078124.25-.125.371094l-1.890624 5.34375c23.183593-1.003906 47.839843-9.578125 51.0625-24.679687 1.613281-7.535157-5.007813-11.734375-9.097657-13.5625-3.242187-1.453125-6.3125-2.179688-9.246093-2.179688zm0 0" fill="#fcdf6c"/><path d="m244.539062 204.527344c-1.117187 0-2.207031-.242188-3.203124-.695313-.976563.445313-2.0625.695313-3.207032.695313-43.402344 0-66.800781-18.585938-70.734375-37.003906-2.75-12.882813 4.105469-24.722657 17.894531-30.898438 10.222657-4.574219 20.109376-4.734375 29.394532-.480469 21.027344 9.644531 30.679687 39.445313 31.617187 42.488281l5.519531 15.589844c1.425782 4.019532-.679687 8.4375-4.703124 9.859375-.851563.304688-1.722657.445313-2.578126.445313zm-43.683593-55.976563c-2.941407 0-6.003907.722657-9.25 2.179688-4.089844 1.828125-10.707031 6.027343-9.097657 13.5625 3.222657 15.101562 27.878907 23.675781 51.0625 24.679687l-1.890624-5.34375c-.042969-.121094-.085938-.246094-.125-.371094-2.175782-7.222656-10.617188-27.265624-23.335938-33.078124-2.378906-1.085938-4.824219-1.628907-7.363281-1.628907zm0 0" fill="#fcdf6c"/><path d="m344.449219 371.183594h-176.898438c-5.648437 0-10.226562-4.582032-10.226562-10.230469v-148.90625h197.351562v148.910156c0 5.648438-4.578125 10.226563-10.226562 10.226563zm0 0" fill="#7fd19b"/><path d="m299.320312 212.046875v159.136719h45.128907c5.648437 0 10.226562-4.582032 10.226562-10.230469v-148.90625zm0 0" fill="#3cab8b"/><path d="m363.390625 221.757812h-214.78125c-2.898437 0-5.25-2.351562-5.25-5.25v-14.457031c0-2.902343 2.351563-5.25 5.25-5.25h214.78125c2.898437 0 5.25 2.347657 5.25 5.25v14.457031c0 2.898438-2.351563 5.25-5.25 5.25zm0 0" fill="#3cab8b"/><path d="m256 166.882812c-9.847656 0-17.832031 7.980469-17.832031 17.832032v100.96875c0 2.28125 2.703125 3.480468 4.394531 1.953125l11.671875-10.566407c1-.90625 2.527344-.90625 3.53125 0l11.667969 10.566407c1.691406 1.527343 4.398437.328125 4.398437-1.953125v-100.96875c0-9.851563-7.984375-17.832032-17.832031-17.832032zm0 0" fill="#fcdf6c"/><path d="m273.832031 196.800781v-12.085937c0-9.851563-7.984375-17.832032-17.832031-17.832032s-17.832031 7.980469-17.832031 17.832032v12.085937zm0 0" fill="#ffa63b"/></svg>