<svg height="512pt" viewBox="-89 0 512 512.00002" width="512pt" xmlns="http://www.w3.org/2000/svg"><path d="m291.335938 147.097656-124.507813 59.527344-124.507813-59.527344c-8.824218-4.21875-14.441406-13.128906-14.441406-22.910156v-124.1875h277.894532v124.1875c0 9.78125-5.613282 18.691406-14.4375 22.910156zm0 0" fill="#fc477e"/><path d="m110.679688 179.777344 56.148437 26.847656 56.148437-26.847656v-179.777344h-112.296874zm0 0" fill="#e4eaf7"/><path d="m222.976562 0v179.777344l68.359376-32.679688c8.824218-4.21875 14.441406-13.128906 14.441406-22.910156v-124.1875zm0 0" fill="#6bd"/><path d="m251.835938 0v98.035156c0 9.78125-5.617188 18.691406-14.441407 22.910156l-14.417969 6.894532v51.9375l68.359376-32.679688c8.820312-4.21875 14.4375-13.128906 14.4375-22.910156v-124.1875zm0 0" fill="#52a7c9"/><path d="m320.113281 27.085938h-306.570312c-7.480469 0-13.542969-6.0625-13.542969-13.542969s6.0625-13.542969 13.542969-13.542969h306.570312c7.480469 0 13.542969 6.0625 13.542969 13.542969 0 7.476562-6.0625 13.542969-13.542969 13.542969zm0 0" fill="#ff8533"/><path d="m112.890625 180.472656-2.210937-1.058594v.363282l56.148437 26.847656 56.148437-26.847656v-51.9375zm0 0" fill="#c3c8d0"/><path d="m206.285156 252.664062c-4.269531 0-7.726562-3.457031-7.726562-7.726562v-22.308594c0-4.566406-3.710938-8.277344-8.277344-8.277344h-46.90625c-4.5625 0-8.277344 3.710938-8.277344 8.277344v22.308594c0 4.269531-3.457031 7.726562-7.726562 7.726562-4.265625 0-7.726563-3.457031-7.726563-7.726562v-22.308594c0-13.085937 10.644531-23.730468 23.730469-23.730468h46.90625c13.085938 0 23.730469 10.644531 23.730469 23.730468v22.308594c0 4.269531-3.460938 7.726562-7.726563 7.726562zm0 0" fill="#ff8533"/><path d="m305.773438 373.054688c0 76.738281-62.207032 138.945312-138.945313 138.945312s-138.945313-62.207031-138.945313-138.945312c0-76.738282 62.207032-138.949219 138.945313-138.949219s138.945313 62.210937 138.945313 138.949219zm0 0" fill="#ff8533"/><path d="m267.988281 373.054688c0 55.867187-45.289062 101.160156-101.160156 101.160156s-101.164063-45.292969-101.164063-101.160156c0-55.871094 45.292969-101.164063 101.164063-101.164063s101.160156 45.292969 101.160156 101.164063zm0 0" fill="#fcdf6c"/><path d="m166.828125 271.890625c-9.339844 0-18.382813 1.269531-26.96875 3.640625 42.773437 11.804688 74.191406 50.992188 74.191406 97.519531 0 46.53125-31.414062 85.71875-74.191406 97.523438 8.585937 2.367187 17.628906 3.640625 26.96875 3.640625 55.871094 0 101.160156-45.292969 101.160156-101.164063 0-55.867187-45.289062-101.160156-101.160156-101.160156zm0 0" fill="#f4b425"/><path d="m159.632812 339.3125-4.796874 6.035156c-.960938.960938-2.195313 1.375-3.019532 1.375-2.878906 0-4.9375-3.019531-4.9375-5.898437 0-2.058594 1.097656-4.390625 2.878906-5.625l14.265626-13.714844c.960937-.960937 2.054687-1.507813 3.703124-1.507813 3.015626 0 6.445313 1.78125 6.445313 4.800782v90.792968c0 3.152344-3.703125 4.800782-7.269531 4.800782-3.703125 0-7.269532-1.648438-7.269532-4.800782zm0 0" fill="#f8fbff"/></svg>