<?xml version="1.0" encoding="iso-8859-1"?>
<!-- Generator: Adobe Illustrator 19.0.0, SVG Export Plug-In . SVG Version: 6.00 Build 0)  -->
<svg version="1.1" id="Capa_1" xmlns="http://www.w3.org/2000/svg" xmlns:xlink="http://www.w3.org/1999/xlink" x="0px" y="0px"
	 viewBox="0 0 512 512" style="enable-background:new 0 0 512 512;" xml:space="preserve">
<g>
	<path style="fill:#FFFFFF;" d="M256,40L256,40C136.8,40,40,136.8,40,256l0,0c0,119.2,96.8,216,216,216l0,0
		c119.2,0,216-96.8,216-216l0,0C472,136.8,375.2,40,256,40z"/>
	<path style="fill:#FFFFFF;" d="M488.8,324H23.2c-8.8,0-16-7.2-16-16V204c0-8.8,7.2-16,16-16h465.6c8.8,0,16,7.2,16,16v104.8
		C504.8,316.8,497.6,324,488.8,324z"/>
</g>
<g>
	<rect x="110.4" y="356.8" style="fill:#193651;" width="14.4" height="14.4"/>
	<rect x="387.2" y="356.8" style="fill:#193651;" width="14.4" height="14.4"/>
	<rect x="110.4" y="140.8" style="fill:#193651;" width="14.4" height="14.4"/>
	<rect x="387.2" y="140.8" style="fill:#193651;" width="14.4" height="14.4"/>
	<path style="fill:#193651;" d="M490.4,180.8h-24c-31.2-86.4-113.6-148-210.4-148S76.8,94.4,45.6,180.8h-24
		c-12,0-21.6,9.6-21.6,21.6v107.2c0,12,9.6,21.6,21.6,21.6h24c31.2,86.4,113.6,148,210.4,148s179.2-61.6,210.4-148h24
		c12,0,21.6-9.6,21.6-21.6V202.4C512,190.4,502.4,180.8,490.4,180.8z M256,47.2c88.8,0,164,55.2,194.4,133.6H61.6
		C92,102.4,167.2,47.2,256,47.2z M256,464.8c-88.8,0-164-55.2-194.4-133.6h388.8C420,409.6,344.8,464.8,256,464.8z M497.6,309.6
		c0,4-3.2,7.2-7.2,7.2H21.6c-4,0-7.2-3.2-7.2-7.2V202.4c0-4,3.2-7.2,7.2-7.2h468.8c4,0,7.2,3.2,7.2,7.2V309.6z"/>
</g>
<g>
	<polygon style="fill:#FFBF5D;" points="256,69.6 265.6,88.8 286.4,91.2 271.2,106.4 274.4,127.2 256,117.6 237.6,127.2 
		240.8,106.4 225.6,91.2 246.4,88.8 	"/>
	<polygon style="fill:#FFBF5D;" points="340,114.4 347.2,128.8 362.4,131.2 351.2,141.6 354.4,157.6 340,150.4 326.4,157.6 
		328.8,141.6 317.6,131.2 333.6,128.8 	"/>
	<polygon style="fill:#FFBF5D;" points="172,114.4 178.4,128.8 194.4,131.2 183.2,141.6 185.6,157.6 172,150.4 157.6,157.6 
		160.8,141.6 149.6,131.2 164.8,128.8 	"/>
	<polygon style="fill:#FFBF5D;" points="256,442.4 246.4,423.2 225.6,420.8 240.8,405.6 237.6,384.8 256,394.4 274.4,384.8 
		271.2,405.6 286.4,420.8 265.6,423.2 	"/>
	<polygon style="fill:#FFBF5D;" points="172,397.6 164.8,383.2 149.6,380.8 160.8,370.4 157.6,354.4 172,361.6 185.6,354.4 
		183.2,370.4 194.4,380.8 178.4,383.2 	"/>
	<polygon style="fill:#FFBF5D;" points="340,397.6 333.6,383.2 317.6,380.8 328.8,370.4 326.4,354.4 340,361.6 354.4,354.4 
		351.2,370.4 362.4,380.8 347.2,383.2 	"/>
</g>
<g>
	<path style="fill:#F15F50;" d="M85.6,228H67.2c-0.8,0-1.6,0-2.4,0.8c-0.8,0.8-0.8,1.6-0.8,2.4V280c0,0.8,0,1.6,0.8,2.4
		c1.6,1.6,4,1.6,4.8,0c0.8-0.8,0.8-1.6,0.8-2.4v-16.8h14.4c8,0,16-2.4,19.2-8.8c2.4-5.6,3.2-12,0-17.6
		C100.8,230.4,92.8,228,85.6,228z M84.8,256.8H70.4v-21.6c10.4,0,20.8-1.6,25.6,3.2c2.4,2.4,3.2,4.8,3.2,8
		C99.2,253.6,92.8,256.8,84.8,256.8z"/>
	<path style="fill:#F15F50;" d="M139.2,228h-18.4c-0.8,0-1.6,0-2.4,0.8s-0.8,1.6-0.8,2.4V280c0,4.8,7.2,4.8,7.2,0v-18.4
		c18.4,0,28.8-3.2,28.8,16c0,1.6,0,4,0.8,4.8c1.6,1.6,4,1.6,5.6,0c2.4-2.4,0-13.6-0.8-17.6c-1.6-4-4-6.4-8-7.2
		C165.6,253.6,167.2,228,139.2,228z M124,255.2v-20c10.4,0,20.8-0.8,26.4,2.4c2.4,1.6,3.2,4,3.2,7.2
		C153.6,256.8,136.8,255.2,124,255.2z"/>
	<path style="fill:#F15F50;" d="M210.4,234.4c0.8,0,1.6,0,2.4-0.8c1.6-1.6,1.6-3.2,0-4.8c-0.8-0.8-1.6-0.8-2.4-0.8h-32
		c-2.4,0-4,1.6-4,4c0,45.6-2.4,52,4,52h32c0.8,0,1.6,0,2.4-0.8c2.4-2.4,0.8-5.6-2.4-5.6h-28.8V260c22.4,0,28.8,1.6,28.8-3.2
		c0-2.4-1.6-3.2-3.2-3.2h-25.6V236h28.8V234.4z"/>
	<path style="fill:#F15F50;" d="M279.2,227.2c-5.6,0-6.4,6.4-23.2,48.8l-18.4-45.6c-0.8-1.6-2.4-3.2-4.8-3.2c-2.4,0-4.8,0-6.4,1.6
		c-0.8,0.8-1.6,2.4-1.6,4v48c0,2.4,1.6,4,4,4s4-1.6,4-4v-45.6c0.8,2.4,18.4,46.4,20.8,48c1.6,1.6,4,1.6,6.4,0s19.2-45.6,20.8-48
		v45.6c0,2.4,1.6,4,4,4s4-1.6,4-4v-48c0-1.6-0.8-2.4-1.6-4C284,227.2,282.4,227.2,279.2,227.2z"/>
	<path style="fill:#F15F50;" d="M304,228.8c-0.8,0.8-0.8,1.6-0.8,2.4v49.6c0,2.4,1.6,4,4,4c6.4,0,4-6.4,4-52.8c0-0.8,0-1.6-0.8-2.4
		C308,227.2,305.6,227.2,304,228.8z"/>
	<path style="fill:#F15F50;" d="M364,231.2c0,32.8,2.4,40.8-8,44.8c-9.6,4-23.2,0-23.2-13.6v-32c0-0.8,0-1.6-0.8-2.4
		c-2.4-2.4-6.4-0.8-6.4,2.4c0,32.8-2.4,44,12,51.2c14.4,6.4,34.4-0.8,34.4-19.2v-32c0-0.8,0-1.6-0.8-2.4
		C368,226.4,364,228,364,231.2z"/>
	<path style="fill:#F15F50;" d="M443.2,227.2c-2.4,0-4,0-5.6,0.8c-2.4,1.6-19.2,44.8-20,48l-18.4-45.6c-0.8-1.6-2.4-3.2-4.8-3.2
		c-4,0-8,0.8-8,5.6v48c0,0.8,0,1.6,0.8,2.4c1.6,1.6,4,1.6,4.8,0c0.8-0.8,0.8-1.6,0.8-2.4v-45.6l18.4,45.6c0.8,2.4,3.2,3.2,4.8,3.2
		c2.4,0,4-1.6,4.8-3.2l18.4-45.6v45.6c0,0.8,0,1.6,0.8,2.4c1.6,1.6,4,1.6,4.8,0c0.8-0.8,0.8-1.6,0.8-2.4v-48
		C448.8,229.6,446.4,227.2,443.2,227.2z"/>
</g>
<g>
</g>
<g>
</g>
<g>
</g>
<g>
</g>
<g>
</g>
<g>
</g>
<g>
</g>
<g>
</g>
<g>
</g>
<g>
</g>
<g>
</g>
<g>
</g>
<g>
</g>
<g>
</g>
<g>
</g>
</svg>
