<?xml version="1.0" encoding="UTF-8" standalone="no"?>
<!-- Created with Inkscape (http://www.inkscape.org/) -->

<svg
   xmlns:dc="http://purl.org/dc/elements/1.1/"
   xmlns:cc="http://creativecommons.org/ns#"
   xmlns:rdf="http://www.w3.org/1999/02/22-rdf-syntax-ns#"
   xmlns:svg="http://www.w3.org/2000/svg"
   xmlns="http://www.w3.org/2000/svg"
   xmlns:sodipodi="http://sodipodi.sourceforge.net/DTD/sodipodi-0.dtd"
   xmlns:inkscape="http://www.inkscape.org/namespaces/inkscape"
   width="50mm"
   height="50mm"
   viewBox="0 0 50 50"
   version="1.1"
   id="svg8"
   inkscape:version="0.92.4 (5da689c313, 2019-01-14)"
   sodipodi:docname="xrp.svg">
  <defs
     id="defs2" />
  <sodipodi:namedview
     id="base"
     pagecolor="#ffffff"
     bordercolor="#666666"
     borderopacity="1.0"
     inkscape:pageopacity="0.0"
     inkscape:pageshadow="2"
     inkscape:zoom="1.4"
     inkscape:cx="211.38417"
     inkscape:cy="53.877746"
     inkscape:document-units="mm"
     inkscape:current-layer="layer1"
     showgrid="false"
     fit-margin-top="0"
     fit-margin-left="0"
     fit-margin-right="0"
     fit-margin-bottom="0"
     inkscape:window-width="1280"
     inkscape:window-height="737"
     inkscape:window-x="-8"
     inkscape:window-y="-8"
     inkscape:window-maximized="1" />
  <metadata
     id="metadata5">
    <rdf:RDF>
      <cc:Work
         rdf:about="">
        <dc:format>image/svg+xml</dc:format>
        <dc:type
           rdf:resource="http://purl.org/dc/dcmitype/StillImage" />
        <dc:title></dc:title>
      </cc:Work>
    </rdf:RDF>
  </metadata>
  <g
     inkscape:label="Layer 1"
     inkscape:groupmode="layer"
     id="layer1"
     transform="translate(-36.342411,-110.11328)">
    <g
       id="g146"
       transform="matrix(0.36632471,0,0,0.40499847,-126.9442,-95.434215)">
      <path
         id="path130"
         d="m 581.7,619.8 c 0,3.8 0,7.7 0,11.5 -45.1,0 -90.3,0 -135.4,0 0,-3.8 0,-7.7 0,-11.5 5.4,0 10.8,-0.2 16.2,0 2.3,0.1 4,-0.6 5.6,-2.2 9.3,-9.3 18.7,-18.6 28.1,-27.8 10.6,-10.5 24.9,-10.5 35.5,0 9.4,9.3 18.8,18.5 28.1,27.8 1.7,1.7 3.3,2.3 5.6,2.2 5.5,-0.2 10.9,0 16.3,0 z"
         inkscape:connector-curvature="0"
         style="fill:#ffffff" />
      <path
         id="path132"
         d="m 581.7,619.8 c -5.4,0 -10.8,-0.2 -16.2,0 -2.3,0.1 -4,-0.6 -5.6,-2.2 -9.3,-9.3 -18.7,-18.6 -28.1,-27.8 -10.6,-10.5 -24.9,-10.5 -35.5,0 -9.4,9.3 -18.8,18.5 -28.1,27.8 -1.7,1.7 -3.3,2.3 -5.6,2.2 -5.4,-0.1 -10.8,0 -16.2,0 0,-0.2 0,-0.5 0,-0.7 4.7,-4.5 9.5,-8.9 14.1,-13.5 8.9,-8.7 17.6,-17.4 26.5,-26.2 15.4,-15.2 38.9,-15.2 54.3,0 12.7,12.5 25.3,25.1 38,37.6 0.8,0.8 1.7,1.4 2.6,2 -0.2,0.4 -0.2,0.6 -0.2,0.8 z"
         inkscape:connector-curvature="0" />
      <path
         id="path134"
         d="m 446.8,507.5 c 6.5,0 12.2,-0.1 18,0.1 1.1,0 2.4,1 3.3,1.9 9.5,9.3 18.9,18.7 28.4,28 10.3,10.2 24.7,10.1 35,0 9.5,-9.4 18.9,-18.8 28.5,-28 1.1,-1.1 3.1,-1.8 4.7,-1.9 5.3,-0.2 10.5,-0.1 16.5,-0.1 -1.1,1.3 -1.8,2.1 -2.5,2.8 -12.7,12.5 -25.3,25.1 -38,37.6 -14.6,14.3 -37.9,14.7 -52.6,0.6 -13.4,-12.9 -26.5,-26.1 -39.7,-39.2 -0.5,-0.3 -0.8,-0.8 -1.6,-1.8 z"
         inkscape:connector-curvature="0" />
    </g>
  </g>
</svg>
